<?xml version="1.0" encoding="UTF-8" standalone="no"?>
<!-- Created with Inkscape (http://www.inkscape.org/) -->
<svg
   xmlns:dc="http://purl.org/dc/elements/1.1/"
   xmlns:cc="http://creativecommons.org/ns#"
   xmlns:rdf="http://www.w3.org/1999/02/22-rdf-syntax-ns#"
   xmlns:svg="http://www.w3.org/2000/svg"
   xmlns="http://www.w3.org/2000/svg"
   xmlns:sodipodi="http://sodipodi.sourceforge.net/DTD/sodipodi-0.dtd"
   xmlns:inkscape="http://www.inkscape.org/namespaces/inkscape"
   width="309.10168"
   height="222.75266"
   id="svg2"
   sodipodi:version="0.32"
   inkscape:version="0.46"
   sodipodi:docname="lambda_lamb.svg"
   inkscape:output_extension="org.inkscape.output.svg.inkscape"
   version="1.0"
   inkscape:export-filename="/home/tribaal/sources/LambDA/lambda_lamb.png"
   inkscape:export-xdpi="90"
   inkscape:export-ydpi="90">
  <defs
     id="defs4">
    <inkscape:perspective
       sodipodi:type="inkscape:persp3d"
       inkscape:vp_x="0 : 526.18109 : 1"
       inkscape:vp_y="0 : 1000 : 0"
       inkscape:vp_z="744.09448 : 526.18109 : 1"
       inkscape:persp3d-origin="372.04724 : 350.78739 : 1"
       id="perspective10" />
  </defs>
  <sodipodi:namedview
     id="base"
     pagecolor="#ffffff"
     bordercolor="#666666"
     borderopacity="1.0"
     gridtolerance="10000"
     guidetolerance="10"
     objecttolerance="10"
     inkscape:pageopacity="0.0"
     inkscape:pageshadow="2"
     inkscape:zoom="1.4"
     inkscape:cx="231.47127"
     inkscape:cy="59.378411"
     inkscape:document-units="px"
     inkscape:current-layer="layer1"
     showgrid="false"
     inkscape:window-width="1280"
     inkscape:window-height="751"
     inkscape:window-x="0"
     inkscape:window-y="48" />
  <metadata
     id="metadata7">
    <rdf:RDF>
      <cc:Work
         rdf:about="">
        <dc:format>image/svg+xml</dc:format>
        <dc:type
           rdf:resource="http://purl.org/dc/dcmitype/StillImage" />
      </cc:Work>
    </rdf:RDF>
  </metadata>
  <g
     inkscape:label="Layer 1"
     inkscape:groupmode="layer"
     id="layer1"
     transform="translate(-21.41171,-29.721125)">
    <path
       sodipodi:type="arc"
       style="fill:#ff9955;fill-rule:evenodd;stroke:#000000;stroke-width:1px;stroke-linecap:butt;stroke-linejoin:miter;stroke-opacity:1"
       id="path2383"
       sodipodi:cx="175.71428"
       sodipodi:cy="305.21933"
       sodipodi:rx="38.57143"
       sodipodi:ry="78.571426"
       d="M 214.28571,305.21933 A 38.57143,78.571426 0 1 1 137.14285,305.21933 A 38.57143,78.571426 0 1 1 214.28571,305.21933 z"
       transform="matrix(0.6818564,0.8148715,-0.8183895,0.6789253,221.40495,-240.18637)" />
    <path
       style="fill:#000000;stroke:#000000;stroke-linecap:round;stroke-opacity:1"
       d="M 249.35044,164.89343 L 249.35044,216.14343 C 246.44811,217.32693 244.35045,220.45288 244.35044,224.17468 C 244.35044,225.17942 244.50961,226.15357 244.78794,227.04968 L 242.28794,237.67468 L 246.13169,239.83093 L 248.06919,231.58093 C 248.58605,231.92854 249.13904,232.19439 249.72544,232.39343 L 251.28794,239.70593 L 260.56919,238.36218 L 258.41294,228.29968 C 259.0017,227.0763 259.35044,225.66864 259.35044,224.17468 C 259.35044,220.7545 257.6061,217.83077 255.06919,216.45593 L 255.06919,164.89343 L 249.35044,164.89343 z"
       id="path3243" />
    <path
       style="fill:#000000;stroke:#000000;stroke-linecap:round;stroke-opacity:1"
       d="M 142.20758,164.17914 L 142.20758,215.42914 C 139.30525,216.61264 137.20759,219.73859 137.20758,223.46039 C 137.20758,224.46513 137.36675,225.43928 137.64508,226.33539 L 135.14508,236.96039 L 138.98883,239.11664 L 140.92633,230.86664 C 141.44319,231.21425 141.99618,231.4801 142.58258,231.67914 L 144.14508,238.99164 L 153.42633,237.64789 L 151.27008,227.58539 C 151.85884,226.36201 152.20758,224.95435 152.20758,223.46039 C 152.20758,220.04021 150.46324,217.11648 147.92633,215.74164 L 147.92633,164.17914 L 142.20758,164.17914 z"
       id="path3241" />
    <path
       style="fill:#f2f2f2;stroke:#000000;stroke-width:0.8899551;stroke-linecap:round;stroke-opacity:1"
       d="M 180.37473,30.17198 C 175.37269,30.28317 170.37778,31.98883 166.13793,35.34807 C 163.30664,37.59135 161.09626,40.33655 159.5586,43.37802 C 152.02931,39.23017 142.63906,39.3571 135.12106,44.24539 C 134.47975,43.0466 133.74008,41.88553 132.88188,40.77599 C 124.71187,30.21311 109.5924,28.36619 99.155873,36.63512 C 88.719333,44.90406 86.894503,60.17853 95.064523,70.74144 C 96.660353,72.80463 98.528143,74.4999 100.56575,75.88955 C 97.093933,79.83214 95.009233,84.82709 95.009233,90.27073 C 95.009243,98.02947 99.245183,104.90093 105.70758,109.07259 C 102.18861,113.02866 100.06814,118.05315 100.06814,123.53769 C 100.06815,132.9803 106.33665,141.08359 115.27247,144.63381 C 115.35961,147.55736 116.0022,150.33331 117.17993,152.8876 C 112.76402,161.13673 113.31339,171.60935 119.39148,179.4676 C 127.09685,189.42974 140.95732,191.66766 151.26531,184.95147 C 151.90374,186.14998 152.61973,187.3127 153.47685,188.42086 C 161.64689,198.98375 176.76631,200.83067 187.20286,192.56175 L 188.66801,191.30268 C 190.8098,189.30511 192.49232,187.00652 193.75456,184.53178 C 198.28752,187.02991 203.49894,187.9842 208.57187,187.27372 C 216.76647,197.71383 231.79668,199.53523 242.1873,191.30268 L 242.57432,190.96694 C 250.74436,201.52983 265.83615,203.40473 276.27269,195.1358 L 277.76547,193.87675 C 278.7972,192.91449 279.70111,191.85865 280.52989,190.77109 C 288.96169,196.77459 300.60814,196.77685 309.14171,190.01564 L 310.60687,188.75661 C 314.24252,185.36571 316.63148,181.10723 317.71145,176.58577 C 325.11345,172.56899 330.06843,165.18961 330.06843,156.77667 C 330.06844,152.04538 328.50138,147.6492 325.81119,143.99031 C 328.50069,140.33171 330.06843,135.93455 330.06843,131.20392 C 330.06844,122.21296 324.39184,114.42906 316.13571,110.6394 C 320.08562,106.57676 322.49391,101.24034 322.4939,95.39087 C 322.49391,90.0908 320.52203,85.21017 317.21385,81.31749 C 322.01228,77.1263 325.00951,71.22714 325.00952,64.69798 C 325.00953,51.98948 313.69434,41.67133 299.74266,41.67132 C 295.05234,41.67132 290.6539,42.83042 286.88807,44.86091 C 278.42496,36.37626 264.83167,35.38923 255.20775,43.01431 C 253.57705,44.30633 252.15608,45.76125 250.95052,47.35104 C 242.52107,41.3682 230.89014,41.38102 222.36635,48.13445 C 222.2266,48.2452 222.08839,48.35696 221.95171,48.4702 C 221.94723,48.46438 221.9562,48.44805 221.95171,48.44222 C 216.48716,41.3772 207.92201,38.20117 199.72572,39.34906 C 194.87492,33.17053 187.63028,30.01071 180.37473,30.17198 z"
       id="path3163" />
    <path
       sodipodi:type="arc"
       style="fill:#ffffff;stroke:#000000;stroke-linecap:round;stroke-opacity:1"
       id="path3200"
       sodipodi:cx="231.42857"
       sodipodi:cy="666.64789"
       sodipodi:rx="20"
       sodipodi:ry="20"
       d="M 251.42857,666.64789 A 20,20 0 1 1 211.42857,666.64789 A 20,20 0 1 1 251.42857,666.64789 z"
       transform="translate(-159.76976,-559.05337)" />
    <path
       sodipodi:type="arc"
       style="fill:#2b1100;stroke:#000000;stroke-linecap:round;stroke-opacity:1"
       id="path3209"
       sodipodi:cx="83.337585"
       sodipodi:cy="643.25043"
       sodipodi:rx="6.0609155"
       sodipodi:ry="6.0609155"
       d="M 89.398501,643.25043 A 6.0609155,6.0609155 0 1 1 77.27667,643.25043 A 6.0609155,6.0609155 0 1 1 89.398501,643.25043 z"
       transform="translate(-13.297657,-532.7894)" />
    <path
       style="fill:#ff9955;stroke:#000000;stroke-linecap:round;stroke-opacity:1"
       d="M 72.070373,86.91775 C 61.364923,86.91775 52.622083,95.34069 52.101623,105.91775 L 92.039123,105.91775 C 91.518663,95.34068 82.775813,86.91777 72.070373,86.91775 z"
       id="path3211" />
    <path
       style="fill:none;fill-rule:evenodd;stroke:#000000;stroke-width:1px;stroke-linecap:butt;stroke-linejoin:miter;stroke-opacity:1"
       d="M 59.612713,171.6207 C 59.868513,169.67853 61.927753,166.98286 63.327593,165.09557 C 65.002153,162.83791 66.589573,161.07688 67.949593,159.24328 C 68.989233,157.84161 69.811443,154.50143 70.172263,152.45504 C 70.674383,149.60738 71.396193,148.42245 71.897553,145.57911"
       id="path3224" />
    <path
       style="fill:#000000;stroke:#000000;stroke-linecap:round;stroke-opacity:1"
       d="M 174.27232,173.78125 L 174.27232,225.03125 C 171.36999,226.21475 169.27233,229.3407 169.27232,233.0625 C 169.27232,234.06724 169.43149,235.04139 169.70982,235.9375 L 167.20982,246.5625 L 171.05357,248.71875 L 172.99107,240.46875 C 173.50793,240.81636 174.06092,241.08221 174.64732,241.28125 L 176.20982,248.59375 L 185.49107,247.25 L 183.33482,237.1875 C 183.92358,235.96412 184.27232,234.55646 184.27232,233.0625 C 184.27232,229.64232 182.52798,226.71859 179.99107,225.34375 L 179.99107,173.78125 L 174.27232,173.78125 z"
       id="rect3232" />
    <path
       style="fill:#000000;stroke:#000000;stroke-linecap:round;stroke-opacity:1"
       d="M 280.77901,177.03628 L 280.77901,228.28628 C 277.87668,229.46978 275.77902,232.59573 275.77901,236.31753 C 275.77901,237.32227 275.93818,238.29642 276.21651,239.19253 L 273.71651,249.81753 L 277.56026,251.97378 L 279.49776,243.72378 C 280.01462,244.07139 280.56761,244.33724 281.15401,244.53628 L 282.71651,251.84878 L 291.99776,250.50503 L 289.84151,240.44253 C 290.43027,239.21915 290.77901,237.81149 290.77901,236.31753 C 290.77901,232.89735 289.03467,229.97362 286.49776,228.59878 L 286.49776,177.03628 L 280.77901,177.03628 z"
       id="path3245" />
    <path
       style="fill:#008000;fill-rule:evenodd;stroke:#000000;stroke-width:1px;stroke-linecap:butt;stroke-linejoin:miter;stroke-opacity:1"
       d="M 71.680563,148.31719 L 97.530763,144.01585 L 75.626343,151.03566 L 97.442823,149.77393 L 69.979143,155.29115 L 71.680563,148.31719 z"
       id="path3247" />
    <path
       style="fill:#008000;fill-rule:evenodd;stroke:#000000;stroke-width:1px;stroke-linecap:butt;stroke-linejoin:miter;stroke-opacity:1"
       d="M 70.220143,155.42783 L 91.568553,170.62582 L 74.958263,154.71418 L 94.013703,165.41195 L 71.748093,148.41383 L 70.220143,155.42783 z"
       id="path3249" />
  </g>
</svg>
